<svg width="124" height="124" viewBox="0 0 124 124" fill="none" xmlns="http://www.w3.org/2000/svg">
<rect width="124" height="124" rx="24" fill="url(#paint0_linear_2:2)"/>
<g filter="url(#filter0_d_2:2)">
<path d="M61.75 90C77.352 90 90 77.352 90 61.75C90 46.148 77.352 33.5 61.75 33.5C46.148 33.5 33.5 46.148 33.5 61.75C33.5 77.352 46.148 90 61.75 90Z" fill="url(#paint1_radial_2:2)"/>
<g style="mix-blend-mode:soft-light">
<path d="M61.75 90C77.352 90 90 77.352 90 61.75C90 46.148 77.352 33.5 61.75 33.5C46.148 33.5 33.5 46.148 33.5 61.75C33.5 77.352 46.148 90 61.75 90Z" fill="url(#paint2_radial_2:2)"/>
</g>
<g style="mix-blend-mode:soft-light">
<path d="M61.75 90C77.352 90 90 77.352 90 61.75C90 46.148 77.352 33.5 61.75 33.5C46.148 33.5 33.5 46.148 33.5 61.75C33.5 77.352 46.148 90 61.75 90Z" fill="url(#paint3_radial_2:2)"/>
</g>
<g style="mix-blend-mode:overlay">
<path d="M61.75 90C77.352 90 90 77.352 90 61.75C90 46.148 77.352 33.5 61.75 33.5C46.148 33.5 33.5 46.148 33.5 61.75C33.5 77.352 46.148 90 61.75 90Z" fill="url(#paint4_radial_2:2)" fill-opacity="0.7"/>
</g>
<mask id="mask0_2:2" style="mask-type:alpha" maskUnits="userSpaceOnUse" x="33" y="33" width="57" height="57">
<path d="M61.75 90C77.352 90 90 77.352 90 61.75C90 46.148 77.352 33.5 61.75 33.5C46.148 33.5 33.5 46.148 33.5 61.75C33.5 77.352 46.148 90 61.75 90Z" fill="white"/>
</mask>
<g mask="url(#mask0_2:2)">
<g filter="url(#filter1_f_2:2)">
<path d="M33.3388 60.944C33.3695 60.5426 33.5016 60.5024 33.5401 60.91C33.5829 61.3628 33.4997 62.2732 33.5198 62.8223C33.5728 64.2763 33.7957 65.5405 34.0255 66.5689C34.7659 69.8827 35.7913 72.0181 36.7477 73.8274C39.8915 79.7744 43.3352 82.7859 46.6947 85.0555C51.6191 88.3823 56.5836 89.4406 61.5521 89.665C61.6774 89.6707 61.6983 90.487 61.575 90.5933C61.3526 90.7849 61.0772 90.5947 60.8497 90.5867C60.1962 90.5638 59.5426 90.519 58.8891 90.4511C56.9514 90.2497 55.0138 89.8396 53.08 89.1799C47.8223 87.386 42.1533 84.3145 37.2025 75.6632C36.891 75.119 36.582 74.546 36.2774 73.9303C36.0338 73.4379 35.7926 72.9217 35.5556 72.3696C34.7761 70.5539 32.9596 65.9056 33.3388 60.944ZM61.5555 90.602C61.436 90.6057 61.4057 89.8447 61.5197 89.6867C61.6919 89.4479 61.9501 89.6446 62.1317 89.6332C62.8859 89.5861 63.6399 89.5162 64.3937 89.4215C66.4605 89.162 68.5258 88.7188 70.5865 88.0364C75.6978 86.3438 81.1928 83.7633 86.011 75.8353C86.3177 75.3307 86.6217 74.7954 86.9216 74.22C87.833 72.4714 90.1173 67.8297 89.8532 62.0594C89.831 61.5729 89.9791 61.2815 90.0454 61.6989C90.1297 62.2301 90.0955 63.3378 90.0722 63.9272C89.9978 65.8149 89.7079 67.4112 89.4022 68.7004C88.4336 72.7861 87.0736 75.155 85.8282 77.1329C81.7801 83.562 77.3835 86.1538 73.109 88.0163C69.2751 89.6867 65.412 90.483 61.5555 90.602Z" fill="#401C02"/>
</g>
<g filter="url(#filter2_f_2:2)">
<path d="M33.3388 60.944C33.3695 60.5426 33.5016 60.5024 33.5401 60.91C33.5829 61.3628 33.4997 62.2732 33.5198 62.8223C33.5728 64.2763 33.7957 65.5405 34.0255 66.5689C34.7659 69.8827 35.7913 72.0181 36.7477 73.8274C39.8915 79.7744 43.3352 82.7859 46.6947 85.0555C51.6191 88.3823 56.5836 89.4406 61.5521 89.665C61.6774 89.6707 61.6983 90.487 61.575 90.5933C61.3526 90.7849 61.0772 90.5947 60.8497 90.5867C60.1962 90.5638 59.5426 90.519 58.8891 90.4511C56.9514 90.2497 55.0138 89.8396 53.08 89.1799C47.8223 87.386 42.1533 84.3145 37.2025 75.6632C36.891 75.119 36.582 74.546 36.2774 73.9303C36.0338 73.4379 35.7926 72.9217 35.5556 72.3696C34.7761 70.5539 32.9596 65.9056 33.3388 60.944ZM61.5555 90.602C61.436 90.6057 61.4057 89.8447 61.5197 89.6867C61.6919 89.4479 61.9501 89.6446 62.1317 89.6332C62.8859 89.5861 63.6399 89.5162 64.3937 89.4215C66.4605 89.162 68.5258 88.7188 70.5865 88.0364C75.6978 86.3438 81.1928 83.7633 86.011 75.8353C86.3177 75.3307 86.6217 74.7954 86.9216 74.22C87.833 72.4714 90.1173 67.8297 89.8532 62.0594C89.831 61.5729 89.9791 61.2815 90.0454 61.6989C90.1297 62.2301 90.0955 63.3378 90.0722 63.9272C89.9978 65.8149 89.7079 67.4112 89.4022 68.7004C88.4336 72.7861 87.0736 75.155 85.8282 77.1329C81.7801 83.562 77.3835 86.1538 73.109 88.0163C69.2751 89.6867 65.412 90.483 61.5555 90.602Z" fill="#401C02"/>
</g>
</g>
<path d="M57.114 58.0041C57.1183 59.028 56.9581 60.046 56.6396 61.0191C56.6065 61.129 56.5396 61.2257 56.4483 61.2954C56.357 61.365 56.246 61.404 56.1312 61.4068C56.0002 61.4026 55.8749 61.3521 55.7778 61.2641C55.6806 61.1761 55.6178 61.0565 55.6006 60.9266C55.2399 58.7655 53.8366 57.1537 52.1593 57.1537C50.4819 57.1537 49.0787 58.7655 48.7179 60.9266C48.7008 61.0565 48.638 61.1761 48.5408 61.2641C48.4436 61.3521 48.3183 61.4026 48.1873 61.4068V61.4068C48.0726 61.4038 47.9617 61.3648 47.8704 61.2952C47.7792 61.2256 47.7122 61.129 47.679 61.0191C47.3605 60.046 47.2003 59.028 47.2046 58.0041C47.2046 54.1094 49.4231 50.9527 52.1593 50.9527C54.8955 50.9527 57.114 54.1094 57.114 58.0041Z" fill="url(#paint5_radial_2:2)"/>
<path d="M57.114 58.0041C57.1183 59.028 56.9581 60.046 56.6396 61.0191C56.6065 61.129 56.5396 61.2257 56.4483 61.2954C56.357 61.365 56.246 61.404 56.1312 61.4068C56.0002 61.4026 55.8749 61.3521 55.7778 61.2641C55.6806 61.1761 55.6178 61.0565 55.6006 60.9266C55.2399 58.7655 53.8366 57.1537 52.1593 57.1537C50.4819 57.1537 49.0787 58.7655 48.7179 60.9266C48.7008 61.0565 48.638 61.1761 48.5408 61.2641C48.4436 61.3521 48.3183 61.4026 48.1873 61.4068V61.4068C48.0726 61.4038 47.9617 61.3648 47.8704 61.2952C47.7792 61.2256 47.7122 61.129 47.679 61.0191C47.3605 60.046 47.2003 59.028 47.2046 58.0041C47.2046 54.1094 49.4231 50.9527 52.1593 50.9527C54.8955 50.9527 57.114 54.1094 57.114 58.0041Z" stroke="url(#paint6_linear_2:2)" stroke-width="0.337286" stroke-miterlimit="10"/>
<path d="M76.3682 58.0041C76.3744 59.0277 76.2162 60.0456 75.8997 61.0191C75.8666 61.129 75.7996 61.2257 75.7083 61.2954C75.617 61.365 75.5061 61.404 75.3913 61.4068C75.2603 61.4026 75.135 61.3521 75.0378 61.2641C74.9406 61.1761 74.8778 61.0565 74.8607 60.9265C74.4999 58.7654 73.0967 57.1537 71.4193 57.1537C69.742 57.1537 68.3388 58.7654 67.978 60.9265C67.9608 61.0565 67.8981 61.1761 67.8009 61.2641C67.7037 61.3521 67.5784 61.4026 67.4474 61.4068V61.4068C67.3326 61.404 67.2216 61.365 67.1303 61.2954C67.039 61.2257 66.9721 61.129 66.939 61.0191C66.6205 60.046 66.4604 59.028 66.4646 58.0041C66.4646 54.1094 68.6831 50.9527 71.4193 50.9527C74.1555 50.9527 76.3682 54.1094 76.3682 58.0041Z" fill="url(#paint7_radial_2:2)"/>
<path d="M76.3682 58.0041C76.3744 59.0277 76.2162 60.0456 75.8997 61.0191C75.8666 61.129 75.7996 61.2257 75.7083 61.2954C75.617 61.365 75.5061 61.404 75.3913 61.4068C75.2603 61.4026 75.135 61.3521 75.0378 61.2641C74.9406 61.1761 74.8778 61.0565 74.8607 60.9265C74.4999 58.7654 73.0967 57.1537 71.4193 57.1537C69.742 57.1537 68.3388 58.7654 67.978 60.9265C67.9608 61.0565 67.8981 61.1761 67.8009 61.2641C67.7037 61.3521 67.5784 61.4026 67.4474 61.4068V61.4068C67.3326 61.404 67.2216 61.365 67.1303 61.2954C67.039 61.2257 66.9721 61.129 66.939 61.0191C66.6205 60.046 66.4604 59.028 66.4646 58.0041C66.4646 54.1094 68.6831 50.9527 71.4193 50.9527C74.1555 50.9527 76.3682 54.1094 76.3682 58.0041Z" stroke="url(#paint8_linear_2:2)" stroke-width="0.337286" stroke-miterlimit="10"/>
<path d="M80.4056 69.3344C78.7037 72.8335 76.052 75.7833 72.7533 77.847C69.4547 79.9107 65.6421 81.005 61.7511 81.005C57.8601 81.005 54.0476 79.9107 50.7489 77.847C47.4503 75.7833 44.7986 72.8335 43.0966 69.3344C48.5374 71.2343 54.927 72.3283 61.7511 72.3283C68.5753 72.3283 74.9648 71.2343 80.4056 69.3344Z" fill="url(#paint9_linear_2:2)"/>
<path d="M82.1697 63.9018C82.1486 64.019 82.1264 64.1361 82.1029 64.2591C82.0795 64.3821 82.0608 64.4746 82.0373 64.5812C82.0373 64.6023 82.0291 64.6222 82.0245 64.6421C82.0022 64.751 81.9776 64.8588 81.953 64.9666C81.9284 65.0743 81.9061 65.1622 81.8815 65.2594C81.8675 65.318 81.8534 65.3765 81.837 65.4351C81.8312 65.4609 81.8242 65.4878 81.8171 65.5136C81.8019 65.5745 81.7855 65.6307 81.7691 65.6951C81.7691 65.7185 81.7574 65.742 81.7504 65.7654C81.7277 65.8482 81.7043 65.9313 81.6801 66.0149C81.6485 66.132 81.6145 66.2398 81.5805 66.3522V66.3593C81.5477 66.4647 81.5149 66.5713 81.4798 66.6767C81.4036 66.911 81.324 67.1452 81.2455 67.3795C81.2045 67.4966 81.1624 67.6032 81.1202 67.7133C81.078 67.8234 81.0476 67.9007 81.0101 67.9944C80.9539 68.135 80.893 68.2744 80.8367 68.4126C80.7981 68.504 80.7583 68.5953 80.7196 68.6855L80.7137 68.6972C80.6751 68.7851 80.6353 68.8718 80.5966 68.9584L80.5334 69.0943C80.4947 69.1763 80.456 69.2583 80.4162 69.3391C74.9754 71.239 68.5858 72.333 61.7617 72.333C54.9376 72.333 48.548 71.239 43.1072 69.3391C43.0674 69.2583 43.0287 69.1763 42.9901 69.0943L42.9268 68.9584C42.887 68.8718 42.8472 68.7851 42.8097 68.6972L42.8038 68.6855C42.764 68.5953 42.7242 68.504 42.6867 68.4126C42.627 68.2744 42.5696 68.135 42.5133 67.9944C42.4759 67.9007 42.4395 67.807 42.4032 67.7133C42.3669 67.6196 42.3189 67.4919 42.2779 67.3795C42.1936 67.1452 42.1139 66.9168 42.0378 66.6767C42.0026 66.5713 41.9698 66.4647 41.937 66.3593V66.3522C41.9031 66.2351 41.8691 66.1273 41.8375 66.0149C41.8125 65.9321 41.7891 65.849 41.7672 65.7654C41.7602 65.742 41.7543 65.7185 41.7485 65.6951C41.7321 65.6354 41.7157 65.578 41.7004 65.5136C41.6934 65.4878 41.6864 65.4609 41.6805 65.4351C41.6641 65.3765 41.6501 65.318 41.636 65.2594C41.6114 65.1622 41.588 65.0638 41.5646 64.9666C41.5411 64.8693 41.5154 64.751 41.4931 64.6421C41.4931 64.6222 41.4837 64.6023 41.4802 64.5812C41.4568 64.4746 41.4357 64.3668 41.4146 64.2591C41.3936 64.1513 41.369 64.0248 41.3479 63.9018C47.1506 66.2035 54.1856 67.5517 61.7664 67.5517C69.3472 67.5517 76.367 66.2035 82.1697 63.9018Z" fill="url(#paint10_linear_2:2)"/>
<path d="M80.4056 69.3344C74.9648 71.2343 68.5753 72.3283 61.7511 72.3283C54.927 72.3283 48.5374 71.2343 43.0966 69.3344" stroke="url(#paint11_radial_2:2)" stroke-width="1.01186" stroke-miterlimit="10"/>
<mask id="mask1_2:2" style="mask-type:alpha" maskUnits="userSpaceOnUse" x="41" y="64" width="42" height="17">
<path d="M81.5207 64.0366C81.5853 64.012 81.6554 64.0052 81.7236 64.017C81.7917 64.0289 81.8554 64.0588 81.908 64.1037C81.9606 64.1486 82.0002 64.2069 82.0225 64.2724C82.0448 64.3378 82.0491 64.4081 82.0349 64.4758C81.0437 69.1201 78.4887 73.2836 74.7969 76.2707C71.1051 79.2577 66.5 80.8874 61.7511 80.8874C57.0022 80.8874 52.3971 79.2577 48.7052 76.2707C45.0134 73.2836 42.4585 69.1201 41.4672 64.4758C41.4531 64.4081 41.4573 64.3378 41.4797 64.2724C41.502 64.2069 41.5415 64.1486 41.5941 64.1037C41.6467 64.0588 41.7104 64.0289 41.7786 64.017C41.8467 64.0052 41.9168 64.012 41.9815 64.0366C47.6565 66.1848 54.4502 67.4334 61.7511 67.4334C69.0519 67.4334 75.8456 66.1848 81.5207 64.0366Z" fill="url(#paint12_linear_2:2)"/>
</mask>
<g mask="url(#mask1_2:2)">
<g filter="url(#filter3_f_2:2)">
<path d="M81.5207 64.0366C81.5853 64.012 81.6554 64.0052 81.7236 64.017C81.7917 64.0289 81.8554 64.0588 81.908 64.1037C81.9606 64.1486 82.0002 64.2069 82.0225 64.2724C82.0448 64.3378 82.0491 64.4081 82.0349 64.4758C81.0437 69.1201 78.4887 73.2836 74.7969 76.2707C71.1051 79.2577 66.5 80.8874 61.7511 80.8874C57.0022 80.8874 52.3971 79.2577 48.7052 76.2707C45.0134 73.2836 42.4585 69.1201 41.4672 64.4758C41.4531 64.4081 41.4573 64.3378 41.4797 64.2724C41.502 64.2069 41.5415 64.1486 41.5941 64.1037C41.6467 64.0588 41.7104 64.0289 41.7786 64.017C41.8467 64.0052 41.9168 64.012 41.9815 64.0366C47.6565 66.1848 54.4502 67.4334 61.7511 67.4334C69.0519 67.4334 75.8456 66.1848 81.5207 64.0366Z" stroke="url(#paint13_linear_2:2)" stroke-width="2.02371" stroke-miterlimit="10"/>
</g>
</g>
<path d="M42.2657 63.4048C42.0668 63.3292 41.8513 63.3085 41.6417 63.3449C41.4319 63.3813 41.2358 63.4734 41.0738 63.6118C40.9119 63.7501 40.7902 63.9294 40.7215 64.131C40.6528 64.3325 40.6395 64.5489 40.6832 64.7573L40.6832 64.7573L40.6838 64.7601C41.7133 69.5838 44.367 73.9081 48.2014 77.0105C52.0358 80.113 56.8187 81.8056 61.7511 81.8056C66.6834 81.8056 71.4663 80.113 75.3008 77.0105C79.1352 73.9081 81.7888 69.5838 82.8183 64.7601L82.8189 64.7573L81.5207 64.1537L81.2371 63.4045C81.2369 63.4046 81.2366 63.4047 81.2363 63.4048C75.6598 65.5156 68.9634 66.7495 61.7511 66.7495C54.5387 66.7495 47.8423 65.5156 42.2657 63.4048ZM42.2657 63.4048C42.2659 63.4048 42.2661 63.4049 42.2663 63.405L41.9815 64.1537M42.2657 63.4048C42.2655 63.4047 42.2653 63.4046 42.265 63.4045L41.9815 64.1537M41.9815 64.1537C41.9168 64.1291 41.8467 64.1223 41.7786 64.1342C41.7104 64.146 41.6467 64.1759 41.5941 64.2208C41.5415 64.2658 41.502 64.324 41.4797 64.3895C41.4573 64.455 41.4531 64.5252 41.4672 64.5929L41.9815 64.1537Z" stroke="url(#paint14_linear_2:2)" stroke-width="1.60211" stroke-miterlimit="10"/>
<path d="M81.5207 64.1537C81.5853 64.1291 81.6554 64.1224 81.7236 64.1342C81.7917 64.146 81.8554 64.176 81.908 64.2209C81.9606 64.2658 82.0002 64.3241 82.0225 64.3895C82.0448 64.455 82.0491 64.5253 82.0349 64.593C81.0437 69.2373 78.4887 73.4008 74.7969 76.3878C71.1051 79.3749 66.5 81.0046 61.7511 81.0046C57.0022 81.0046 52.3971 79.3749 48.7052 76.3878C45.0134 73.4008 42.4585 69.2373 41.4672 64.593C41.4531 64.5253 41.4573 64.455 41.4797 64.3895C41.502 64.3241 41.5415 64.2658 41.5941 64.2209C41.6467 64.176 41.7104 64.146 41.7786 64.1342C41.8467 64.1224 41.9168 64.1291 41.9815 64.1537C47.6565 66.3019 54.4502 67.5506 61.7511 67.5506C69.0519 67.5506 75.8456 66.3019 81.5207 64.1537Z" stroke="url(#paint15_linear_2:2)" stroke-width="2.02371" stroke-miterlimit="10"/>
</g>
<defs>
<filter id="filter0_d_2:2" x="17.5" y="24.5" width="88.5" height="88.5" filterUnits="userSpaceOnUse" color-interpolation-filters="sRGB">
<feFlood flood-opacity="0" result="BackgroundImageFix"/>
<feColorMatrix in="SourceAlpha" type="matrix" values="0 0 0 0 0 0 0 0 0 0 0 0 0 0 0 0 0 0 127 0" result="hardAlpha"/>
<feOffset dy="7"/>
<feGaussianBlur stdDeviation="8"/>
<feComposite in2="hardAlpha" operator="out"/>
<feColorMatrix type="matrix" values="0 0 0 0 0 0 0 0 0 0 0 0 0 0 0 0 0 0 0.25 0"/>
<feBlend mode="normal" in2="BackgroundImageFix" result="effect1_dropShadow_2:2"/>
<feBlend mode="normal" in="SourceGraphic" in2="effect1_dropShadow_2:2" result="shape"/>
</filter>
<filter id="filter1_f_2:2" x="29.0713" y="56.4069" width="65.2439" height="38.4877" filterUnits="userSpaceOnUse" color-interpolation-filters="sRGB">
<feFlood flood-opacity="0" result="BackgroundImageFix"/>
<feBlend mode="normal" in="SourceGraphic" in2="BackgroundImageFix" result="shape"/>
<feGaussianBlur stdDeviation="2.10804" result="effect1_foregroundBlur_2:2"/>
</filter>
<filter id="filter2_f_2:2" x="26.5417" y="53.8773" width="70.3032" height="43.547" filterUnits="userSpaceOnUse" color-interpolation-filters="sRGB">
<feFlood flood-opacity="0" result="BackgroundImageFix"/>
<feBlend mode="normal" in="SourceGraphic" in2="BackgroundImageFix" result="shape"/>
<feGaussianBlur stdDeviation="3.37286" result="effect1_foregroundBlur_2:2"/>
</filter>
<filter id="filter3_f_2:2" x="38.7608" y="61.3131" width="45.9806" height="22.2726" filterUnits="userSpaceOnUse" color-interpolation-filters="sRGB">
<feFlood flood-opacity="0" result="BackgroundImageFix"/>
<feBlend mode="normal" in="SourceGraphic" in2="BackgroundImageFix" result="shape"/>
<feGaussianBlur stdDeviation="0.843214" result="effect1_foregroundBlur_2:2"/>
</filter>
<linearGradient id="paint0_linear_2:2" x1="-70.25" y1="-67" x2="123" y2="125" gradientUnits="userSpaceOnUse">
<stop stop-color="#C33764"/>
<stop offset="1" stop-color="#32085C"/>
</linearGradient>
<radialGradient id="paint1_radial_2:2" cx="0" cy="0" r="1" gradientUnits="userSpaceOnUse" gradientTransform="translate(61.7289 33.5) rotate(90) scale(56.4578)">
<stop stop-color="#FFDE43"/>
<stop offset="1" stop-color="#FFBC00"/>
</radialGradient>
<radialGradient id="paint2_radial_2:2" cx="0" cy="0" r="1" gradientUnits="userSpaceOnUse" gradientTransform="translate(61.7289 41.055) rotate(90) scale(48.9028)">
<stop stop-color="white" stop-opacity="0.5"/>
<stop offset="0.782278"/>
</radialGradient>
<radialGradient id="paint3_radial_2:2" cx="0" cy="0" r="1" gradientUnits="userSpaceOnUse" gradientTransform="translate(61.7289 41.055) rotate(90) scale(48.9028)">
<stop stop-color="white" stop-opacity="0.5"/>
<stop offset="0.782278"/>
</radialGradient>
<radialGradient id="paint4_radial_2:2" cx="0" cy="0" r="1" gradientUnits="userSpaceOnUse" gradientTransform="translate(61.7289 27.3505) rotate(90) scale(62.6073 84.6674)">
<stop offset="0.0922635" stop-color="white"/>
<stop offset="0.670207" stop-color="white" stop-opacity="0"/>
</radialGradient>
<radialGradient id="paint5_radial_2:2" cx="0" cy="0" r="1" gradientUnits="userSpaceOnUse" gradientTransform="translate(52.1524 56.1763) scale(6.31614 5.2361)">
<stop stop-color="#743C1C"/>
<stop offset="1" stop-color="#401C02"/>
</radialGradient>
<linearGradient id="paint6_linear_2:2" x1="52.1593" y1="61.701" x2="52.1593" y2="50.6163" gradientUnits="userSpaceOnUse">
<stop stop-color="#FFDE43"/>
<stop offset="0.22" stop-color="#FED93F"/>
<stop offset="0.51" stop-color="#FCC934"/>
<stop offset="0.82" stop-color="#F9AF21"/>
<stop offset="1" stop-color="#F79D14"/>
</linearGradient>
<radialGradient id="paint7_radial_2:2" cx="0" cy="0" r="1" gradientUnits="userSpaceOnUse" gradientTransform="translate(71.4096 56.1763) scale(6.31247 5.2361)">
<stop stop-color="#743C1C"/>
<stop offset="1" stop-color="#401C02"/>
</radialGradient>
<linearGradient id="paint8_linear_2:2" x1="71.4165" y1="61.7009" x2="71.4165" y2="50.6163" gradientUnits="userSpaceOnUse">
<stop stop-color="#FFDE43"/>
<stop offset="0.22" stop-color="#FED93F"/>
<stop offset="0.51" stop-color="#FCC934"/>
<stop offset="0.82" stop-color="#F9AF21"/>
<stop offset="1" stop-color="#F79D14"/>
</linearGradient>
<linearGradient id="paint9_linear_2:2" x1="43.0823" y1="75.1719" x2="80.4056" y2="75.1719" gradientUnits="userSpaceOnUse">
<stop stop-color="#CCCCCC"/>
<stop offset="0.05" stop-color="#D5D5D5"/>
<stop offset="0.2" stop-color="#E9E9E9"/>
<stop offset="0.35" stop-color="#F6F6F6"/>
<stop offset="0.5" stop-color="#FAFAFA"/>
<stop offset="0.65" stop-color="#F6F6F6"/>
<stop offset="0.8" stop-color="#E9E9E9"/>
<stop offset="0.95" stop-color="#D5D5D5"/>
<stop offset="1" stop-color="#CCCCCC"/>
</linearGradient>
<linearGradient id="paint10_linear_2:2" x1="41.3322" y1="68.119" x2="82.1697" y2="68.119" gradientUnits="userSpaceOnUse">
<stop stop-color="#CCCCCC"/>
<stop offset="0.05" stop-color="#D5D5D5"/>
<stop offset="0.2" stop-color="#E9E9E9"/>
<stop offset="0.35" stop-color="#F6F6F6"/>
<stop offset="0.5" stop-color="#FAFAFA"/>
<stop offset="0.65" stop-color="#F6F6F6"/>
<stop offset="0.8" stop-color="#E9E9E9"/>
<stop offset="0.95" stop-color="#D5D5D5"/>
<stop offset="1" stop-color="#CCCCCC"/>
</linearGradient>
<radialGradient id="paint11_radial_2:2" cx="0" cy="0" r="1" gradientUnits="userSpaceOnUse" gradientTransform="translate(61.7511 70.8407) scale(13.3367)">
<stop stop-color="#401C02"/>
<stop offset="1" stop-color="#401C02"/>
</radialGradient>
<linearGradient id="paint12_linear_2:2" x1="20426.6" y1="10884.4" x2="20426.6" y2="8250.25" gradientUnits="userSpaceOnUse">
<stop stop-color="#401C02"/>
<stop offset="1" stop-color="#401C02"/>
</linearGradient>
<linearGradient id="paint13_linear_2:2" x1="20426.6" y1="10884.4" x2="20426.6" y2="8250.25" gradientUnits="userSpaceOnUse">
<stop stop-color="#401C02"/>
<stop offset="1" stop-color="#401C02"/>
</linearGradient>
<linearGradient id="paint14_linear_2:2" x1="61.7511" y1="81.4794" x2="61.7511" y2="63.5854" gradientUnits="userSpaceOnUse">
<stop offset="0.265625" stop-color="#FFDE43"/>
<stop offset="1" stop-color="#F79D14"/>
</linearGradient>
<linearGradient id="paint15_linear_2:2" x1="20426.6" y1="10884.5" x2="20426.6" y2="8250.37" gradientUnits="userSpaceOnUse">
<stop stop-color="#401C02"/>
<stop offset="1" stop-color="#401C02"/>
</linearGradient>
</defs>
</svg>
